# xmcd CD database file
#
# Track frame offsets:
#	150
#	9697
#	27399
#	45666
#	64228
#	86318
#	108932
#	133544
#	147561
#	164873
#	178915
#	204867
#	220169
#	230296
#	242943
#	252180
#	263752
#
# Disc length: 3670 seconds
#
# Revision: 5
# Processed by: cddbd v1.5.2PL0 Copyright (c) Steve Scherf et al.
# Submitted via: CDex 1.51
#
DISCID=f50e5411
DTITLE=Various Artist - Blues With A Feeling CD1
DYEAR=1968
DGENRE=Blues
TTITLE0=Dick Waterman - Introduction
TTITLE1=Son House - Preaching Blues
TTITLE2=Son House - Death Letter Blues
TTITLE3=Son House - Empire State Express
TTITLE4=Skip James - Devil Got My Woman
TTITLE5=Bukka White - Aberdeen Mississippi Blues
TTITLE6=Robert Pete Williams - Levee Camp Blues
TTITLE7=Mississippi Fred Mcdowell - Louise
TTITLE8=Reverend Robert Wilkins - Don't You Let Nobody Turn You Round
TTITLE9=Reverend Pearly Brown and Mrs. Christine Brown - Keep Your Lamp Trimmed And Burning
TTITLE10=Mississippi Fred Mcdowell, Annie Mae Mcdowell and Rev. Robert Wilkins - What Do You Think Ab
TTITLE11=Lightnin' Hopkins - The Women I'm Loving, She's Taken My Appetite
TTITLE12=Lightnin' Hopkins - Come On Baby
TTITLE13=Lightnin' Hopkins - Baby Please Don't Go
TTITLE14=Mance Lipscomb - Freddie
TTITLE15=Mance Lipscomb - So Different Blues
TTITLE16=Mance Lipscomb - God Moves On The Water
EXTD=YEAR: 1968
EXTT0=
EXTT1=
EXTT2=
EXTT3=
EXTT4=
EXTT5=
EXTT6=
EXTT7=
EXTT8=
EXTT9=
EXTT10=
EXTT11=
EXTT12=
EXTT13=
EXTT14=
EXTT15=
EXTT16=
PLAYORDER=
